Fly_normalized_Motion_pl17
version=1
nRows=23
nColumns=43
inDegrees=yes
endheader
time		pelvis_tilt		pelvis_list		pelvis_rotation		pelvis_tx		pelvis_ty		pelvis_tz		hip_flexion_r		hip_adduction_r		hip_rotation_r		knee_angle_r		ankle_angle_r		subtalar_angle_r		mtp_angle_r		hip_flexion_l		hip_adduction_l		hip_rotation_l		knee_angle_l		ankle_angle_l		subtalar_angle_l		mtp_angle_l		lumbar_extension		lumbar_bending		lumbar_rotation		neck_flexion		neck_lateral_bending		neck_rotation		arm_flex_r		arm_add_r		arm_rot_r		elbow_flex_r		pro_sup_r		wrist_flex_r		wrist_dev_r		hand_finger_flex_r		arm_flex_l		arm_add_l		arm_rot_l		elbow_flex_l		pro_sup_l		wrist_flex_l		wrist_dev_l		hand_finger_flex_l		
0.840833		-0.144998		-20.197552		86.797612		0.037526		1.863589		1.239137		61.009152		2.584108		1.130679		-66.178647		-13.273904		-5.474345		19.290857		66.337719		-9.141260		-3.474004		-67.125491		-10.019830		-1.368934		27.963630		-35.752891		-4.226612		-2.257773		17.817465		-0.556926		5.769145		64.721903		-17.307697		18.583410		58.330068		115.342486		6.432756		10.052179		22.255215		76.644356		-29.938391		23.701662		61.472261		99.025530		-5.835711		10.289176		25.739870		
0.845253		-0.215201		-20.038656		86.844376		0.037032		1.858637		1.231250		61.092252		2.362634		0.838925		-64.810335		-13.882308		-5.498668		19.062546		66.076078		-9.112631		-3.827421		-65.750315		-10.510094		-1.006057		27.943161		-36.130283		-4.270076		-2.323038		18.140145		-0.501385		5.556872		62.375907		-17.852852		18.372586		58.059278		115.333123		6.557292		9.982760		22.167028		74.250251		-30.387085		22.953460		61.552205		98.700542		-5.791374		9.782724		26.014419		
0.849672		-0.281520		-19.965046		86.892160		0.036541		1.853422		1.223581		61.176956		2.221184		0.663430		-63.331339		-14.279696		-5.740126		18.845198		65.856801		-9.040743		-4.109981		-64.313148		-10.892998		-0.794591		27.912580		-36.399675		-4.278049		-2.337771		18.473386		-0.697345		5.450906		60.177976		-18.335660		18.213651		57.505182		115.606542		6.733704		9.964780		21.946948		71.863231		-30.580077		22.002659		61.353228		98.571906		-5.682999		9.485860		26.539037		
0.854091		-0.273394		-19.850442		86.973772		0.036104		1.847827		1.215778		61.193744		2.097292		0.422218		-61.896956		-14.487542		-5.730160		18.762062		65.612612		-9.062165		-4.470218		-62.974086		-11.079398		-0.678496		27.897389		-36.653898		-4.251130		-2.299216		18.457491		-0.724240		5.410019		58.023521		-19.001371		18.397460		56.952432		115.705534		6.909911		9.999532		21.908018		69.788618		-31.057614		22.017354		61.119881		98.579019		-5.549159		9.535978		26.788527		
0.858510		-0.323697		-19.756381		86.972815		0.035451		1.841971		1.207726		61.227260		1.965363		0.226951		-60.523259		-14.815361		-5.827417		18.604440		65.371505		-9.059049		-4.851872		-61.681567		-11.565859		-0.673124		27.788144		-36.896247		-4.204685		-2.382285		18.644677		-0.986419		5.403581		55.734417		-19.403373		18.226374		56.503096		116.673588		7.262796		9.522564		20.919203		66.876904		-31.104542		20.070207		61.299829		99.504327		-5.680764		10.278988		28.575095		
0.862929		-0.315675		-19.638457		87.036763		0.035134		1.835903		1.199767		61.177787		1.898740		0.066039		-59.121741		-14.918692		-5.700791		18.567322		65.087385		-9.088212		-5.191116		-60.356169		-11.880683		-0.465690		27.765891		-37.151855		-4.188548		-2.319401		18.747360		-1.019258		5.331554		53.477826		-20.061966		18.293903		56.024698		116.639471		7.357793		9.502609		20.848141		64.743483		-31.593852		20.108630		61.045858		99.466860		-5.694636		10.299704		28.732213		
0.867348		-0.332895		-19.490374		87.025006		0.034749		1.829643		1.191621		61.091826		1.854434		-0.050795		-57.791594		-14.988411		-5.534519		18.524959		64.760563		-9.138976		-5.548526		-59.105222		-12.365069		-0.234943		27.725138		-37.439811		-4.195372		-2.236051		18.960874		-1.115381		5.203361		51.133708		-20.616177		18.122794		55.574687		116.703238		7.323753		9.442963		20.607648		62.344744		-31.911089		19.612113		60.863336		99.387556		-5.916094		10.275773		28.928094		
0.871768		-0.292247		-19.305176		87.003872		0.034419		1.823062		1.183368		60.947484		1.855840		-0.234537		-56.506550		-15.005728		-5.335334		18.471671		64.406161		-9.262372		-5.918603		-57.906640		-12.822018		-0.089300		27.680898		-37.720693		-4.164056		-2.141970		19.002975		-1.198123		5.126461		48.803910		-21.042462		17.869403		55.024552		116.887913		7.305172		9.468946		20.386313		59.861179		-32.223367		19.001734		60.687935		99.388471		-6.093825		10.182060		29.030918		
0.876187		-0.197502		-19.065093		87.001328		0.034051		1.816346		1.175000		60.718020		1.874325		-0.475865		-55.251639		-14.997071		-5.079210		18.394945		63.991750		-9.411792		-6.249592		-56.742107		-13.366541		0.070251		27.628039		-38.058080		-4.071056		-2.058773		19.064408		-1.298312		5.084448		46.461706		-21.329887		17.384141		54.413692		117.156498		7.270282		9.461962		20.162593		57.251715		-32.447112		18.102366		60.522984		99.488831		-6.276973		9.931462		29.022143		
0.880606		0.056476		-18.722855		87.205944		0.033179		1.809641		1.166399		60.304172		1.803933		-0.938073		-54.004023		-14.776394		-4.590641		17.919764		63.493548		-9.427036		-6.293327		-55.592727		-13.787298		0.071914		27.398706		-38.525179		-3.645761		-2.209065		19.223893		-1.637116		5.399599		44.270827		-21.211003		16.366150		53.663129		119.356123		8.286140		9.072619		19.532231		53.971941		-32.277118		15.332809		60.653838		101.931690		-5.312368		9.509817		28.834828		
0.885025		0.134863		-18.445217		87.201032		0.033104		1.802315		1.157912		60.042920		1.821136		-1.225834		-52.875874		-14.852905		-4.423269		17.816177		63.047524		-9.619165		-6.670775		-54.500248		-14.486290		0.435851		27.346633		-38.848212		-3.636686		-2.086849		19.149468		-1.586211		5.259907		41.807866		-21.542116		15.805809		53.066708		119.138726		8.111357		8.831184		19.365783		51.564810		-32.442387		14.760233		60.310715		101.880139		-5.375362		9.313856		28.670549		
0.889444		0.186935		-18.168916		87.215362		0.032758		1.794793		1.149403		59.742352		1.819120		-1.403558		-51.739513		-14.834693		-4.239835		17.674274		62.545420		-9.659022		-6.886721		-53.331055		-14.897031		0.662382		27.285220		-39.164159		-3.594482		-1.970961		19.187227		-1.609634		5.236266		39.495742		-21.909969		15.439318		52.335111		119.272860		8.054630		8.747257		19.208404		49.117646		-32.502243		14.107077		59.978811		102.181526		-5.374879		9.134992		28.406542		
0.893864		0.239138		-17.659792		87.220647		0.032405		1.787385		1.140418		59.184213		1.764380		-1.679918		-50.712190		-14.720603		-3.831516		16.979283		61.798009		-9.746269		-7.175319		-52.268843		-15.412085		1.035372		27.028383		-39.741383		-3.507395		-2.093357		19.322795		-1.755178		5.424298		37.180963		-21.841301		14.496707		51.626752		120.374988		8.361450		8.382360		18.714180		45.930651		-32.168414		11.432987		60.061466		104.532811		-4.348023		8.650548		27.263563		
0.898283		0.250755		-17.354687		87.205518		0.032285		1.779208		1.131724		58.873522		1.761158		-1.841336		-49.712090		-14.858043		-3.728718		16.787783		61.295246		-9.831110		-7.448734		-51.250365		-15.996075		1.405271		26.950572		-40.036015		-3.531839		-2.025896		19.218262		-1.710309		5.324377		34.736499		-22.098838		13.918683		50.988256		120.177664		8.210695		8.282442		18.484416		43.382955		-32.179943		10.624807		59.732391		104.608308		-4.351321		8.358560		26.878262		
0.902702		0.256815		-16.911135		87.199650		0.031907		1.771131		1.122831		58.385078		1.720382		-1.986400		-48.742140		-14.939637		-3.559774		16.507682		60.602898		-9.836269		-7.623630		-50.209054		-16.444987		1.794638		26.837924		-40.503269		-3.515128		-2.016161		19.297843		-1.789341		5.355416		32.409440		-22.260173		13.272490		50.247671		120.315534		8.091960		8.306965		18.054586		40.602675		-31.951845		9.177769		59.560618		105.112029		-4.374434		7.831384		26.209746		
0.907121		0.296528		-16.548505		87.261703		0.031345		1.762503		1.114151		57.970412		1.645817		-2.178283		-47.775145		-15.020641		-3.393506		16.240201		60.030565		-9.790231		-7.723153		-49.200352		-16.689591		2.035251		26.728758		-40.826815		-3.410327		-2.046133		19.230457		-1.858764		5.416113		30.182452		-22.548151		12.985543		49.547706		120.615352		8.231379		8.310995		17.659419		37.991909		-31.826934		8.115962		59.246505		105.722427		-4.092363		7.486299		25.681657		
0.911540		0.472601		-15.958506		87.468009		0.030299		1.754036		1.105068		57.294623		1.473552		-2.654869		-46.899850		-15.137263		-3.029918		15.670573		59.276979		-9.716043		-7.660781		-48.318060		-17.076410		2.414911		26.466011		-41.397711		-3.013386		-2.264281		19.161287		-2.161343		5.625911		27.994439		-22.600950		12.226627		48.906031		121.532199		8.658053		7.982871		16.586389		34.867343		-31.210869		5.529316		59.050674		107.121918		-3.439335		6.650683		24.593865		
0.915960		0.507097		-15.613928		87.576967		0.029360		1.744799		1.096284		56.917748		1.321255		-2.864736		-46.054056		-15.426068		-2.856106		15.507634		58.743524		-9.611235		-7.731417		-47.389384		-17.506805		2.711297		26.391627		-41.633637		-2.812589		-2.236992		18.914929		-2.425656		5.517068		25.612349		-22.906328		11.589311		48.228404		121.463835		8.518316		7.736409		16.258426		32.339753		-30.670462		4.395323		58.459855		106.964030		-3.772020		6.267200		24.280600		
0.920379		0.645862		-15.219330		87.783193		0.028415		1.735377		1.087387		56.441070		1.177712		-3.209405		-45.206324		-15.672216		-2.667879		15.341629		58.163392		-9.511760		-7.655018		-46.476800		-17.826205		3.010047		26.315749		-41.900835		-2.456613		-2.297801		18.694449		-2.780590		5.568842		23.338808		-23.092664		10.954846		47.482235		121.606930		8.451935		7.476458		15.917019		29.682974		-30.132294		3.086692		57.940149		106.983630		-4.198366		5.699274		24.011716		
0.924798		0.845329		-14.859415		88.001172		0.027546		1.725547		1.078519		55.977344		1.099793		-3.574986		-44.358776		-15.931112		-2.555811		15.180698		57.637698		-9.461553		-7.519466		-45.603580		-18.086857		3.337081		26.245876		-42.092250		-2.052941		-2.384674		18.404655		-3.083532		5.678479		21.100941		-23.205578		10.281327		46.703130		121.772098		8.401179		7.149295		15.576033		26.987966		-29.687421		1.887794		57.482737		107.107863		-4.601938		5.096513		23.838562		
0.929217		1.053464		-14.565829		88.166361		0.026987		1.715323		1.069770		55.547110		1.120292		-3.872852		-43.455161		-16.152064		-2.526281		15.058153		57.152998		-9.477904		-7.372254		-44.702434		-18.254746		3.672191		26.195171		-42.184983		-1.718948		-2.464252		18.127712		-3.239525		5.792821		18.892991		-23.279319		9.707291		45.929657		121.905173		8.288252		6.837249		15.246988		24.356401		-29.453868		1.084818		57.053117		107.199547		-4.952452		4.553014		23.718578		
0.933636		1.320230		-14.180531		88.370935		0.026462		1.704854		1.060927		55.028433		1.163409		-4.217585		-42.622270		-16.458387		-2.495716		14.899887		56.649615		-9.549185		-7.210066		-43.981178		-18.422802		4.105234		26.117531		-42.331530		-1.330577		-2.579182		17.649500		-3.402245		5.955954		16.651127		-23.284519		8.983117		45.204769		122.208329		8.180488		6.353765		14.698255		21.584498		-29.281289		0.279651		56.816007		107.392070		-5.263769		3.841376		23.583620		
0.938056		1.464614		-13.801786		88.466365		0.025964		1.694066		1.052244		54.547531		1.191407		-4.379238		-41.829870		-16.738805		-2.416070		14.818778		56.120680		-9.598484		-7.192387		-43.271203		-18.590873		4.413866		26.077625		-42.428040		-1.111998		-2.669451		17.064824		-3.479879		6.019751		14.371241		-23.368413		8.403414		44.570697		122.186598		7.916779		5.992334		14.308741		18.958796		-29.257452		-0.008581		56.601310		107.317570		-5.453677		3.387531		23.452204		
